<?xml version="1.0" encoding="utf-8"?>
<!-- Generator: Adobe Illustrator 16.0.5, SVG Export Plug-In . SVG Version: 6.00 Build 0)  -->
<!DOCTYPE svg PUBLIC "-//W3C//DTD SVG 1.1//EN" "http://www.w3.org/Graphics/SVG/1.1/DTD/svg11.dtd">
<svg version="1.1" id="Layer_1" xmlns="http://www.w3.org/2000/svg" xmlns:xlink="http://www.w3.org/1999/xlink" x="0px" y="0px"
	 width="612px" height="792px" viewBox="0 0 612 792" enable-background="new 0 0 612 792" xml:space="preserve">
<path fill="#FFFFFF" d="M181.322,457.721c-5.414,29.699-26.916,168.145-33.258,207.281c-0.464,2.784-1.547,3.867-4.641,3.867H28.026
	c-11.756,0-20.264-10.21-18.717-21.502L99.956,72.084c2.32-14.85,15.624-26.142,30.938-26.142
	c235.589,0,255.39-5.724,315.562,17.634c92.968,36.042,101.476,122.977,68.062,217.026
	c-33.258,96.834-112.148,138.446-216.717,139.683C230.667,421.369,190.294,409.458,181.322,457.721L181.322,457.721z
	 M561.389,235.125c-2.784-2.011-3.867-2.784-4.641,2.011c-3.094,17.635-7.889,34.805-13.612,51.975
	c-61.72,176.035-232.805,160.72-316.336,160.72c-9.436,0-15.623,5.104-16.861,14.541c-34.959,217.181-41.92,262.505-41.92,262.505
	c-1.547,10.982,5.414,19.954,16.397,19.954h98.227c13.303,0,24.286-9.745,26.916-23.048c1.083-8.354-1.701,9.436,22.275-141.23
	c7.115-34.031,22.12-30.473,45.323-30.473c109.828,0,195.525-44.551,221.049-173.714C608.26,324.534,605.32,267.919,561.389,235.125
	L561.389,235.125z"/>
</svg>
