<?xml version="1.0" encoding="utf-8"?>
<!-- Generator: Adobe Illustrator 16.0.5, SVG Export Plug-In . SVG Version: 6.00 Build 0)  -->
<!DOCTYPE svg PUBLIC "-//W3C//DTD SVG 1.1//EN" "http://www.w3.org/Graphics/SVG/1.1/DTD/svg11.dtd">
<svg version="1.1" id="Layer_1" xmlns="http://www.w3.org/2000/svg" xmlns:xlink="http://www.w3.org/1999/xlink" x="0px" y="0px"
	 width="612px" height="792px" viewBox="0 0 612 792" enable-background="new 0 0 612 792" xml:space="preserve">
<path fill="#FFFFFF" d="M560.894,158H51.106C22.844,158,0,180.844,0,209v374c0,28.156,22.844,51,51.106,51h509.787
	C589.156,634,612,611.156,612,583V209C612,180.844,589.156,158,560.894,158L560.894,158z M57.481,209h497.037
	c3.507,0,6.375,2.869,6.375,6.375V260H51.106v-44.625C51.106,211.869,53.975,209,57.481,209z M554.519,583H57.481
	c-3.506,0-6.375-2.869-6.375-6.375V396h509.787v180.625C560.894,580.131,558.025,583,554.519,583z M204,476.75v42.5
	c0,7.013-5.737,12.75-12.75,12.75h-76.5c-7.013,0-12.75-5.737-12.75-12.75v-42.5c0-7.013,5.737-12.75,12.75-12.75h76.5
	C198.263,464,204,469.737,204,476.75z M408,476.75v42.5c0,7.013-5.737,12.75-12.75,12.75h-144.5c-7.013,0-12.75-5.737-12.75-12.75
	v-42.5c0-7.013,5.737-12.75,12.75-12.75h144.5C402.263,464,408,469.737,408,476.75z"/>
</svg>
