<?xml version="1.0" encoding="utf-8"?>
<!-- Generator: Adobe Illustrator 16.0.5, SVG Export Plug-In . SVG Version: 6.00 Build 0)  -->
<!DOCTYPE svg PUBLIC "-//W3C//DTD SVG 1.1//EN" "http://www.w3.org/Graphics/SVG/1.1/DTD/svg11.dtd">
<svg version="1.1" id="Layer_1" xmlns="http://www.w3.org/2000/svg" xmlns:xlink="http://www.w3.org/1999/xlink" x="0px" y="0px"
	 width="612px" height="792px" viewBox="0 0 612 792" enable-background="new 0 0 612 792" xml:space="preserve">
<path fill="#FFFFFF" d="M612,265.95v260.1c0,12.676-10.275,22.95-22.95,22.95H22.95C10.275,549,0,538.726,0,526.05v-260.1
	C0,253.275,10.275,243,22.95,243h566.1C601.725,243,612,253.275,612,265.95z M91.8,518.4c0-33.8-27.4-61.2-61.2-61.2v61.2H91.8z
	 M91.8,273.6H30.6v61.2C64.399,334.8,91.8,307.399,91.8,273.6z M382.5,396c0-50.701-34.249-91.8-76.5-91.8s-76.5,41.099-76.5,91.8
	c0,50.692,34.247,91.8,76.5,91.8C348.234,487.8,382.5,446.711,382.5,396z M581.4,457.2c-33.8,0-61.2,27.4-61.2,61.2h61.2V457.2z
	 M581.4,273.6h-61.2c0,33.799,27.4,61.2,61.2,61.2V273.6z M265.419,437.623c0-7.15,3.746-11.066,11.067-11.066h14.469v-38.133
	c0-4.938,0.511-10.043,0.511-10.043h-0.34c0,0-1.701,2.553-2.723,3.574c-4.256,4.086-10.044,4.256-14.981-1.021l-5.276-5.958
	c-5.108-5.107-4.766-10.726,0.511-15.663l20.77-19.066c4.254-3.916,8-5.448,13.789-5.448h11.576c7.321,0,11.234,3.745,11.234,11.065
	v80.692h14.811c7.32,0,11.066,3.915,11.066,11.066v8.512c0,7.149-3.746,11.065-11.066,11.065h-64.349
	c-7.321,0-11.066-3.916-11.066-11.065L265.419,437.623L265.419,437.623z"/>
</svg>
