<?xml version="1.0" encoding="utf-8"?>
<!-- Generator: Adobe Illustrator 16.0.5, SVG Export Plug-In . SVG Version: 6.00 Build 0)  -->
<!DOCTYPE svg PUBLIC "-//W3C//DTD SVG 1.1//EN" "http://www.w3.org/Graphics/SVG/1.1/DTD/svg11.dtd">
<svg version="1.1" id="Layer_1" xmlns="http://www.w3.org/2000/svg" xmlns:xlink="http://www.w3.org/1999/xlink" x="0px" y="0px"
	 width="612px" height="792px" viewBox="0 0 612 792" enable-background="new 0 0 612 792" xml:space="preserve">
<path fill="#FFFFFF" d="M88.188,349.356c0,8.394-3.4,16.469-9.456,21.994c-5.207,4.675-12.325,6.8-23.269,6.8H51v-57.587h4.462
	c10.944,0,17.744,1.806,23.269,7.013C84.788,332.888,88.188,340.962,88.188,349.356z M536.35,319.5h-5.206v26.456h4.994
	c10.943,0,16.787-4.675,16.787-13.6C552.925,323.962,547.081,319.5,536.35,319.5L536.35,319.5z M612,209v374
	c0,28.156-22.844,51-51,51H51c-28.156,0-51-22.844-51-51V209c0-28.156,22.844-51,51-51h510C589.156,158,612,180.844,612,209z
	 M454.75,392.812h48.131V378.15H471.75v-23.587h30.068V339.9H471.75v-19.337h31.131v-14.875H454.75V392.812z M363.162,305.688
	l37.188,89.462h9.138l37.719-89.462h-18.594l-23.587,58.65l-23.27-58.65H363.162z M274.975,349.888
	c0,26.137,21.144,47.388,47.387,47.388c26.138,0,47.388-21.144,47.388-47.388c0-26.138-21.144-47.388-47.388-47.388
	C296.225,302.5,274.975,323.644,274.975,349.888z M202.725,349.356c0,34.531,35.7,55.781,67.256,40.587v-20.188
	c-20.506,20.506-49.725,6.163-49.725-20.4c0-25.182,28.369-41.544,49.725-20.188v-20.188
	C237.894,293.044,202.725,316.206,202.725,349.356z M166.706,379.425c-8.075,0-14.662-3.931-18.594-11.475l-10.943,10.519
	c18.912,27.731,60.137,19.338,60.137-12.006c0-13.918-5.737-20.188-25.075-27.2c-10.2-3.613-13.069-6.269-13.069-10.944
	c0-9.244,15.406-14.981,26.456-2.656l8.925-11.475c-20.294-18.169-52.807-9.456-52.807,15.194c0,12.006,5.525,18.275,21.463,24.119
	C190.506,363.169,178.819,379.425,166.706,379.425L166.706,379.425z M105.719,349.356c0-25.606-19.125-43.669-46.856-43.669H34
	v87.125h24.862C91.694,392.812,105.719,369.013,105.719,349.356z M130.581,305.688h-17v87.125h17V305.688z M578,430
	c-35.381,22.1-240.55,132.175-442,170h426.062c8.713,0,15.938-7.225,15.938-15.938V430z M578,392.812l-27.519-36.656
	c12.856-2.656,19.868-11.263,19.868-24.65c0-30.281-32.193-25.925-56.206-25.925v87.125h17v-34.85h2.338l23.587,34.85H578V392.812z"
	/>
</svg>
