<?xml version="1.0" encoding="utf-8"?>
<!-- Generator: Adobe Illustrator 16.0.5, SVG Export Plug-In . SVG Version: 6.00 Build 0)  -->
<!DOCTYPE svg PUBLIC "-//W3C//DTD SVG 1.1//EN" "http://www.w3.org/Graphics/SVG/1.1/DTD/svg11.dtd">
<svg version="1.1" id="Layer_1" xmlns="http://www.w3.org/2000/svg" xmlns:xlink="http://www.w3.org/1999/xlink" x="0px" y="0px"
	 width="612px" height="792px" viewBox="0 0 612 792" enable-background="new 0 0 612 792" xml:space="preserve">
<path fill="#FFFFFF" d="M513.081,559.943c0,7.226-4.888,12.432-11.899,12.432c-7.226,0-11.9-5.525-11.9-12.432
	s4.675-12.431,11.9-12.431C508.193,547.513,513.081,553.037,513.081,559.943z M182.856,547.513c-7.544,0-11.9,5.524-11.9,12.431
	s4.356,12.432,11.9,12.432c6.906,0,11.581-5.206,11.581-12.432C194.331,553.037,189.763,547.513,182.856,547.513z M307.7,547.193
	c-5.738,0-9.244,3.719-10.094,9.244H317.9C316.943,550.381,313.225,547.193,307.7,547.193z M422.237,547.513
	c-7.225,0-11.581,5.524-11.581,12.431s4.356,12.432,11.581,12.432c7.226,0,11.9-5.206,11.9-12.432
	C434.138,553.037,429.463,547.513,422.237,547.513z M534.756,575.244c0,0.318,0.319,0.531,0.319,1.168
	c0,0.319-0.319,0.531-0.319,1.169c-0.318,0.319-0.318,0.531-0.531,0.851c-0.318,0.318-0.531,0.531-1.168,0.531
	c-0.319,0.318-0.531,0.318-1.169,0.318c-0.319,0-0.531,0-1.169-0.318c-0.318,0-0.531-0.319-0.85-0.531
	c-0.319-0.319-0.531-0.531-0.531-0.851c-0.319-0.531-0.319-0.85-0.319-1.169c0-0.531,0-0.85,0.319-1.168
	c0-0.531,0.318-0.851,0.531-1.169c0.318-0.319,0.531-0.319,0.85-0.531c0.531-0.319,0.85-0.319,1.169-0.319
	c0.531,0,0.85,0,1.169,0.319c0.531,0.318,0.85,0.318,1.168,0.531C534.544,574.287,534.438,574.713,534.756,575.244z
	 M532.419,576.731c0.531,0,0.531-0.319,0.85-0.319c0.319-0.318,0.319-0.531,0.319-0.85s0-0.531-0.319-0.85
	c-0.318,0-0.531-0.319-1.169-0.319H530.4v3.719h0.85v-1.487h0.318l1.169,1.487h0.851L532.419,576.731L532.419,576.731z M612,210.062
	v374c0,28.156-22.844,51-51,51H51c-28.156,0-51-22.844-51-51v-374c0-28.156,22.844-51,51-51h510
	C589.156,159.062,612,181.906,612,210.062z M68,358.388c0,81.281,65.981,147.156,147.156,147.156c28.9,0,57.269-8.713,81.281-24.544
	c-77.456-63.006-76.925-181.9,0-244.906c-24.013-15.938-52.381-24.544-81.281-24.544C133.981,211.444,68,277.425,68,358.388z
	 M306,473.987c74.906-58.438,74.588-172.337,0-231.094C231.413,301.65,231.094,415.656,306,473.987z M154.806,555.057
	c0-9.244-6.056-15.301-15.619-15.619c-4.888,0-10.094,1.487-13.6,6.906c-2.55-4.356-6.906-6.906-12.962-6.906
	c-4.038,0-8.075,1.487-11.263,5.737V540.5H92.65v38.994h8.712c0-20.082-2.656-32.088,9.562-32.088
	c10.838,0,8.713,10.838,8.713,32.088h8.394c0-19.444-2.656-32.088,9.562-32.088c10.837,0,8.712,10.625,8.712,32.088h8.712v-24.438
	H154.806z M202.513,540.5h-8.394v4.675c-2.869-3.506-6.906-5.737-12.431-5.737c-10.944,0-19.337,8.713-19.337,20.506
	c0,11.9,8.394,20.507,19.337,20.507c5.525,0,9.562-2.019,12.431-5.737v4.887h8.394V540.5z M245.544,567.7
	c0-15.938-24.332-8.713-24.332-16.15c0-6.056,12.644-5.1,19.656-1.169l3.506-6.906c-9.987-6.48-32.087-6.375-32.087,8.713
	c0,15.193,24.331,8.818,24.331,15.938c0,6.693-14.344,6.162-21.994,0.85l-3.719,6.694
	C222.806,583.744,245.544,582.044,245.544,567.7L245.544,567.7z M283.156,577.581l-2.337-7.225
	c-4.038,2.231-12.962,4.675-12.962-4.356v-17.638h13.918V540.5h-13.918v-11.9h-8.713v11.9h-8.075v7.756h8.075V566
	C259.144,584.7,277.525,581.3,283.156,577.581L283.156,577.581z M297.288,563.344h29.218c0-17.213-7.862-24.013-18.487-24.013
	c-11.262,0-19.337,8.394-19.337,20.507c0,21.781,24.012,25.394,35.913,15.087l-4.037-6.375
	C312.269,575.35,299.731,574.713,297.288,563.344z M360.081,540.5c-4.888-2.125-12.325-1.912-16.149,4.675V540.5h-8.713v38.994
	h8.713V557.5c0-12.325,10.094-10.731,13.6-8.925L360.081,540.5L360.081,540.5z M371.344,559.943
	c0-12.112,12.325-16.043,21.994-8.925l4.037-6.906c-12.325-9.669-34.744-4.356-34.744,15.938c0,21.038,23.801,25.288,34.744,15.938
	l-4.037-6.906C383.562,575.987,371.344,571.844,371.344,559.943z M442.213,540.5H433.5v4.675
	c-8.818-11.688-31.769-5.1-31.769,14.769c0,20.4,23.8,26.244,31.769,14.77v4.887h8.713V540.5z M478.019,540.5
	c-2.55-1.275-11.688-3.081-16.149,4.675V540.5h-8.395v38.994h8.395V557.5c0-11.688,9.562-10.943,13.6-8.925L478.019,540.5
	L478.019,540.5z M520.838,524.669h-8.395v20.506c-8.712-11.581-31.769-5.419-31.769,14.769c0,20.613,23.906,26.138,31.769,14.77
	v4.887h8.395V524.669L520.838,524.669z M528.912,444.875v4.888h0.851v-4.888h2.019v-0.85h-4.888v0.85H528.912L528.912,444.875z
	 M535.925,576.412c0-0.531,0-1.168-0.318-1.699c-0.319-0.319-0.531-0.851-0.851-1.169c-0.318-0.319-0.85-0.531-1.168-0.851
	c-0.531,0-1.169-0.318-1.7-0.318c-0.319,0-0.851,0.318-1.487,0.318c-0.531,0.319-0.851,0.531-1.169,0.851
	c-0.531,0.318-0.851,0.85-0.851,1.169c-0.318,0.531-0.318,1.168-0.318,1.699c0,0.319,0,0.851,0.318,1.488
	c0,0.318,0.319,0.85,0.851,1.168c0.318,0.319,0.531,0.531,1.169,0.851c0.531,0.318,1.168,0.318,1.487,0.318
	c0.531,0,1.169,0,1.7-0.318c0.318-0.319,0.85-0.531,1.168-0.851c0.319-0.318,0.531-0.85,0.851-1.168
	C535.925,577.263,535.925,576.731,535.925,576.412z M539.325,443.919h-1.487l-1.7,3.719l-1.7-3.719h-1.487v5.737h0.85V445.3
	l1.7,3.719h1.169l1.487-3.719v4.356h1.169V443.919z M544,358.388c0-80.963-65.981-146.944-147.156-146.944
	c-28.9,0-57.269,8.712-81.281,24.543c76.606,63.006,77.775,182.219,0,244.906c24.013,15.938,52.594,24.544,81.281,24.544
	C478.019,505.544,544,439.669,544,358.388z"/>
</svg>
