<?xml version="1.0" encoding="utf-8"?>
<!-- Generator: Adobe Illustrator 16.0.5, SVG Export Plug-In . SVG Version: 6.00 Build 0)  -->
<!DOCTYPE svg PUBLIC "-//W3C//DTD SVG 1.1//EN" "http://www.w3.org/Graphics/SVG/1.1/DTD/svg11.dtd">
<svg version="1.1" id="Layer_1" xmlns="http://www.w3.org/2000/svg" xmlns:xlink="http://www.w3.org/1999/xlink" x="0px" y="0px"
	 width="612px" height="792px" viewBox="0 0 612 792" enable-background="new 0 0 612 792" xml:space="preserve">
<path fill="#FFFFFF" d="M499.481,369.756c0,0,8.075,39.525,9.881,47.812h-35.487c3.506-9.456,17-46.218,17-46.218
	c-0.213,0.319,3.506-9.669,5.631-15.832L499.481,369.756L499.481,369.756z M612,209v374c0,28.156-22.844,51-51,51H51
	c-28.156,0-51-22.844-51-51V209c0-28.156,22.844-51,51-51h510C589.156,158,612,180.844,612,209z M162.031,475.9l67.15-164.9h-45.156
	l-41.756,112.625l-4.568-22.844l-14.875-75.862c-2.444-10.519-9.988-13.494-19.338-13.919H34.744L34,314.294
	c16.788,4.25,31.769,10.412,44.837,18.168L116.875,475.9H162.031z M262.331,476.112L289.106,311h-42.713l-26.668,165.112H262.331
	L262.331,476.112z M410.975,422.138c0.213-18.807-11.262-33.15-35.806-44.944c-14.981-7.544-24.119-12.644-24.119-20.4
	c0.213-7.013,7.757-14.238,24.544-14.238c13.919-0.319,24.119,2.975,31.769,6.269l3.825,1.806l5.844-35.7
	c-8.394-3.293-21.781-7.012-38.25-7.012c-42.182,0-71.825,22.525-72.037,54.612c-0.319,23.694,21.25,36.869,37.399,44.838
	c16.469,8.074,22.101,13.387,22.101,20.506c-0.213,11.05-13.388,16.15-25.606,16.15c-17,0-26.138-2.656-40.057-8.819l-5.631-2.656
	L289,469.631c9.987,4.569,28.475,8.606,47.6,8.819C381.438,478.557,410.656,456.35,410.975,422.138L410.975,422.138z M561,476.112
	L526.575,311h-33.044c-10.2,0-17.956,2.975-22.312,13.706l-63.432,151.406h44.838c0,0,7.331-20.399,8.925-24.756h54.825
	c1.275,5.844,5.1,24.756,5.1,24.756H561z"/>
</svg>
