<?xml version="1.0" encoding="utf-8"?>
<!-- Generator: Adobe Illustrator 16.0.5, SVG Export Plug-In . SVG Version: 6.00 Build 0)  -->
<!DOCTYPE svg PUBLIC "-//W3C//DTD SVG 1.1//EN" "http://www.w3.org/Graphics/SVG/1.1/DTD/svg11.dtd">
<svg version="1.1" id="Layer_1" xmlns="http://www.w3.org/2000/svg" xmlns:xlink="http://www.w3.org/1999/xlink" x="0px" y="0px"
	 width="612px" height="792px" viewBox="0 0 612 792" enable-background="new 0 0 612 792" xml:space="preserve">
<path fill="#FFFFFF" d="M612,395.362c-40.269-0.212-46.963-0.956-57.906,5.312v-5.312c-48.131,0-56.844-1.806-68.956,5.525v-5.525
	H402.05v5.419c-12.112-6.906-22.737-5.419-80.431-5.419v5.95c-6.694-3.932-15.406-5.95-25.819-5.95h-61.625
	c-3.719,4.038-13.281,14.557-16.681,18.275c-13.494-14.981-11.156-12.325-16.469-18.275h-88.293v98.069h87.125
	c3.506-3.719,13.706-14.77,17.106-18.488c13.494,15.194,10.944,12.432,16.363,18.488h51.956c0-15.619,0.106-8.819,0.106-24.438
	c12.219,0.212,25.818-0.213,36.443-6.588c0,14.769-0.106,18.169-0.106,31.025H363.8c0-19.656,0.106-7.863,0.106-26.882
	c6.588,0,8.182,0,9.987,0.106c0.106,1.381,0,0,0,26.775c162.351,0,155.019,1.168,166.494-4.781v4.781
	c36.975,0,58.225,2.337,71.719-6.481V583c0,28.156-22.844,51-51,51H51c-28.156,0-51-22.844-51-51V366.569h28.263
	c4.462-10.731,2.337-5.631,6.8-16.256h20.4c4.462,10.625,2.337,5.525,6.8,16.256h56.206v-12.113
	c2.337,5.312,1.169,2.656,5.419,12.113h31.344c2.55-5.844,2.762-6.163,5.418-12.113v12.113h143.969V339.9
	c6.8,0,8.5-0.106,10.413,0.212c0,0-0.213,11.582,0.106,26.35h70.656v-9.456c7.862,6.269,18.487,9.456,31.556,9.456h28.476
	c4.462-10.731,2.337-5.631,6.8-16.256h20.188c6.906,15.938,0.213,0.531,7.013,16.256h56.1v-23.269
	c12.538,20.931,8.288,13.706,14.025,23.269h44.2v-97.75h-42.395v19.55c-12.962-21.463-6.693-11.05-11.899-19.55H493.85V290.6
	c-6.587-15.513-4.887-11.475-9.35-21.888h-34.425c-0.425,0-2.444,0.212-2.444-0.319h-29.324c-13.601,0-24.544,3.4-32.619,9.881
	v-9.881h-42.394v5.631c-11.476-6.481-21.994-5.418-68.425-5.631c-0.106,0-12.325-0.106-12.325,0H153.106
	c-2.656,6.481-7.225,17.425-13.387,31.875c-2.975-6.375-11.688-25.287-14.769-31.875H76.075v22.419
	c-7.862-18.487-4.994-11.688-9.562-22.419H24.331c-3.612,8.394-14.556,34-24.543,57.269V209c0-28.156,22.844-51,51-51h510
	c28.156,0,51,22.844,51,51v186.362H612z M413.737,309.725c-0.318,0.212-1.487,2.337-1.487,8.075c0,6.375,0.956,8.182,1.169,8.394
	c0.212,0.106,1.169,0.531,3.612,0.531l7.756-17.957c-1.168,0-2.23-0.106-3.293-0.106
	C415.544,308.663,414.057,309.406,413.737,309.725z M392.594,448.807c9.775,3.506,11.688,10.094,11.688,19.55l-0.106,14.662h-17.638
	l0.106-12.219c0-12.537-4.037-14.662-15.725-14.662h-18.7l-0.106,26.881h-17.638l0.106-73.631h41.862
	c13.812,0,28.794,2.443,28.794,19.868C405.131,437.331,400.775,445.513,392.594,448.807z M385.9,432.443
	c0-6.8-5.95-7.862-11.369-7.862h-22.312v16.575h21.994C380.162,441.156,385.9,439.775,385.9,432.443z M578.956,424.9h31.981v-15.513
	h-34.956c-13.601,0-25.288,7.013-25.288,21.993c0,35.062,45.369,13.601,45.369,29.113c0,5.418-4.568,6.8-8.925,6.8h-34
	l-0.106,15.725h34c8.925,0,18.7-1.912,23.906-9.456V446.15c-11.156-14.663-41.756-1.382-41.756-14.344
	C569.182,425.644,574.068,424.9,578.956,424.9z M473.557,424.581v-15.193h-58.65l-0.106,73.631h58.65l0.106-15.193l-41.013-0.319
	v-14.662h40.269v-14.981H432.65v-13.281H473.557L473.557,424.581z M518.394,467.188h-34.212l-0.106,15.725h34.212
	c15.726,0,27.838-5.949,27.838-23.375c0-35.274-45.581-11.899-45.581-27.943c0-5.95,5.206-6.8,9.774-6.8h32.301v-15.513h-35.275
	c-13.6,0-24.969,7.013-24.969,21.994c0,35.062,45.369,13.281,45.369,29.112C527.638,466.125,522.75,467.188,518.394,467.188z
	 M435.412,298.569c-18.487-0.319-35.274-4.356-35.274,20.931c0,12.538,2.975,21.144,17.106,21.144h7.862l24.969-57.906h26.35
	l29.644,69.488v-69.488h26.882l30.919,51.106v-51.106h17.956v73.312H556.75l-33.15-55.144v55.144h-35.806l-7.013-16.256h-36.443
	l-6.801,16.256h-20.399c-24.226,0-35.062-12.537-35.062-36.125c0-24.756,11.156-37.506,36.125-37.506h17.106v16.15H435.412z
	 M450.606,324.6h24.225l-11.899-29.325L450.606,324.6L450.606,324.6z M373.469,282.525h-17.956v73.631h17.956V282.525z
	 M332.987,322.156c10.094,3.506,11.688,9.775,11.688,19.55v14.344h-17.638c-0.318-15.725,3.825-26.668-15.725-26.668h-19.125v26.668
	h-17.425v-73.631l41.544,0.318c14.131,0,29.112,2.125,29.112,19.55C345.525,310.788,340.85,318.969,332.987,322.156z M325.869,305.9
	c0-6.8-5.95-7.862-11.369-7.862h-22.312v16.256h21.994C320.237,314.294,325.869,312.913,325.869,305.9z M262.65,298.038v-15.513
	h-58.969v73.631h58.969v-15.194h-41.331V326.3h40.163v-14.981h-40.163v-13.281H262.65L262.65,298.038z M172.763,356.156v-57.587
	l-25.5,57.587H131.75l-25.5-57.587v57.587H70.337l-6.8-16.256H26.881l-6.8,16.256H1.062l31.556-73.631H58.65l29.856,69.806v-69.806
	H117.3l23.057,49.938l20.931-49.938h29.325v73.631H172.763L172.763,356.156z M57.269,324.6L45.05,295.275L33.15,324.6H57.269z
	 M326.081,433.506c0,29.645-32.3,24.757-52.381,24.757l-0.106,24.756h-34.212l-21.675-24.438l-22.631,24.438h-69.488l0.106-73.631
	h70.656l21.781,24.225l22.312-24.225h55.994C313.013,409.388,326.081,415.125,326.081,433.506z M206.337,446.044l-19.019-21.463
	h-44.306v13.281h38.568v14.981h-38.568v14.662h43.137L206.337,446.044L206.337,446.044z M256.062,417.25l-26.881,29.112
	l26.881,29.856V417.25z M307.381,433.506c0-6.48-4.887-8.925-10.837-8.925H273.7v18.7h22.525
	C302.494,443.281,307.381,440.307,307.381,433.506z"/>
</svg>
