<?xml version="1.0" encoding="utf-8"?>
<!-- Generator: Adobe Illustrator 16.0.5, SVG Export Plug-In . SVG Version: 6.00 Build 0)  -->
<!DOCTYPE svg PUBLIC "-//W3C//DTD SVG 1.1//EN" "http://www.w3.org/Graphics/SVG/1.1/DTD/svg11.dtd">
<svg version="1.1" id="Layer_1" xmlns="http://www.w3.org/2000/svg" xmlns:xlink="http://www.w3.org/1999/xlink" x="0px" y="0px"
	 width="612px" height="792px" viewBox="0 0 612 792" enable-background="new 0 0 612 792" xml:space="preserve">
<path fill="#EF3C39" d="M309.72,89.987l243.984-0.733c31.688-0.095,57.452,25.515,57.547,57.202l0.733,243.984
	c0.046,15.216-5.955,29.828-16.683,40.621L342.799,685.086c-22.338,22.474-58.666,22.583-81.139,0.244L16.942,442.079
	c-22.474-22.339-22.583-58.666-0.244-81.139l252.503-254.026C279.928,96.122,294.504,90.033,309.72,89.987z M534.981,223.186
	c-0.095-31.687-25.86-57.297-57.547-57.202c-31.688,0.096-57.298,25.86-57.202,57.547c0.095,31.688,25.859,57.297,57.547,57.202
	S535.077,254.873,534.981,223.186z"/>
</svg>
