<?xml version="1.0" encoding="utf-8"?>
<!-- Generator: Adobe Illustrator 16.0.5, SVG Export Plug-In . SVG Version: 6.00 Build 0)  -->
<!DOCTYPE svg PUBLIC "-//W3C//DTD SVG 1.1//EN" "http://www.w3.org/Graphics/SVG/1.1/DTD/svg11.dtd">
<svg version="1.1" id="Layer_1" xmlns="http://www.w3.org/2000/svg" xmlns:xlink="http://www.w3.org/1999/xlink" x="0px" y="0px"
	 width="612px" height="792px" viewBox="0 0 612 792" enable-background="new 0 0 612 792" xml:space="preserve">
<path fill="#FFFFFF" d="M612,155.571v480.857C612,672.63,582.63,702,546.429,702H429.902V459.932h82.784l11.885-92.346h-94.669
	v-59.015c0-26.775,7.377-44.943,45.764-44.943h48.905v-82.511c-8.47-1.093-37.431-3.688-71.309-3.688
	c-70.489,0-118.849,43.031-118.849,122.126v68.167h-83.057v92.346h83.194V702H65.571C29.371,702,0,672.63,0,636.429V155.571
	C0,119.371,29.371,90,65.571,90h480.857C582.63,90,612,119.371,612,155.571z"/>
</svg>
