<?xml version="1.0" encoding="iso-8859-1"?>
<!-- Generator: Adobe Illustrator 19.0.0, SVG Export Plug-In . SVG Version: 6.00 Build 0)  -->
<svg version="1.1" id="Capa_1" xmlns="http://www.w3.org/2000/svg" xmlns:xlink="http://www.w3.org/1999/xlink" x="0px" y="0px"
	 viewBox="0 0 512 512" style="enable-background:new 0 0 512 512;" xml:space="preserve">
<g>
	<g>
		<g>
			<path d="M512,144v-32h-48V96c0-26.51-21.49-48-48-48h-16V0h-32v48h-32V0h-32v48h-32V0h-32v48h-32V0h-32v48h-32V0h-32v48H96
				c-26.51,0-48,21.49-48,48v16H0v32h48v32H0v32h48v32H0v32h48v32H0v32h48v32H0v32h48v16c0,26.51,21.49,48,48,48h16v48h32v-48h32v48
				h32v-48h32v48h32v-48h32v48h32v-48h32v48h32v-48h16c26.51,0,48-21.49,48-48v-16h48v-32h-48v-32h48v-32h-48v-32h48v-32h-48v-32h48
				v-32h-48v-32H512z M432,416c0,8.837-7.163,16-16,16H96c-8.837,0-16-7.163-16-16V96c0-8.837,7.163-16,16-16h320
				c8.837,0,16,7.163,16,16V416z"/>
			<path d="M384,112H128c-8.837,0-16,7.163-16,16v256c0,8.837,7.163,16,16,16h256c8.837,0,16-7.163,16-16V128
				C400,119.163,392.837,112,384,112z M368,320H144V144h224V320z"/>
			<rect x="176" y="240" width="128" height="32"/>
			<rect x="176" y="176" width="32" height="32"/>
			<rect x="240" y="176" width="32" height="32"/>
		</g>
	</g>
</g>
<g>
</g>
<g>
</g>
<g>
</g>
<g>
</g>
<g>
</g>
<g>
</g>
<g>
</g>
<g>
</g>
<g>
</g>
<g>
</g>
<g>
</g>
<g>
</g>
<g>
</g>
<g>
</g>
<g>
</g>
</svg>
